<svg id="a90f248d-120d-415c-92d7-ee0549019ed5" xmlns="http://www.w3.org/2000/svg" xmlns:xlink="http://www.w3.org/1999/xlink" width="221" height="44" viewBox="0 0 221 44"><defs><style>.\30 4117f48-b1e7-4753-b1ee-ad36540712b8{fill:url(#e9c2e960-dc9a-4267-bd09-5b69a729f50f);}.a50d9369-3cad-4a2f-9a4d-2a1761b41ab3{fill:url(#bbb8a2b8-2505-487c-98da-b6a6249f14f4);}.\30 76b2397-d9a9-4038-9e6d-ac89cfe212ca{fill:url(#244afb82-5998-4717-8e7b-1da64d09f280);}.c530ca49-2384-4a38-b3d2-f8b46946d139{fill:url(#bef93b96-bab9-4e11-8cd6-0d3b467497c4);}.a77ed8bb-dc61-4dbc-acd0-7ffda3b8f4c7{fill:#fff;}</style><radialGradient id="e9c2e960-dc9a-4267-bd09-5b69a729f50f" cx="5.89" cy="27.18" r="31.1" gradientUnits="userSpaceOnUse"><stop offset="0" stop-color="#8d0015"/><stop offset="0.24" stop-color="#900016"/><stop offset="0.44" stop-color="#9b0018"/><stop offset="0.63" stop-color="#ad001c"/><stop offset="0.82" stop-color="#c60022"/><stop offset="1" stop-color="#e60029"/><stop offset="1" stop-color="#e60029"/></radialGradient><radialGradient id="bbb8a2b8-2505-487c-98da-b6a6249f14f4" cx="14.06" cy="30.25" r="25.25" gradientUnits="userSpaceOnUse"><stop offset="0" stop-color="#006390"/><stop offset="0.22" stop-color="#006694"/><stop offset="0.43" stop-color="#006e9f"/><stop offset="0.63" stop-color="#007cb2"/><stop offset="0.82" stop-color="#0090cd"/><stop offset="1" stop-color="#00a6eb"/></radialGradient><radialGradient id="244afb82-5998-4717-8e7b-1da64d09f280" cx="8.72" cy="35.5" r="16.98" gradientUnits="userSpaceOnUse"><stop offset="0" stop-color="#2c690f"/><stop offset="0.21" stop-color="#316f10"/><stop offset="0.48" stop-color="#407f13"/><stop offset="0.79" stop-color="#589b18"/><stop offset="1" stop-color="#6db21c"/></radialGradient><radialGradient id="bef93b96-bab9-4e11-8cd6-0d3b467497c4" cx="4.14" cy="42.72" r="6.87" gradientUnits="userSpaceOnUse"><stop offset="0" stop-color="#b9a800"/><stop offset="0.21" stop-color="#c0af00"/><stop offset="0.51" stop-color="#d2c100"/><stop offset="0.86" stop-color="#f1df00"/><stop offset="1" stop-color="#ffed00"/></radialGradient></defs><title>VisualSVN Server</title><path class="04117f48-b1e7-4753-b1ee-ad36540712b8" d="M0,44H32a29.48,29.48,0,0,0,5.27-17,30.27,30.27,0,0,0-.38-5A31.68,31.68,0,0,0,21.81,0H0V44Z"/><path class="a50d9369-3cad-4a2f-9a4d-2a1761b41ab3" d="M15.18,5.36A38.79,38.79,0,0,0,0,10.89V44H33.68a28,28,0,0,0,6-17.11A22.38,22.38,0,0,0,39,22.25,21.55,21.55,0,0,0,15.18,5.36Z"/><path class="076b2397-d9a9-4038-9e6d-ac89cfe212ca" d="M21.83,22.34C16,15.8,6.56,17.2,0,22.41V44H22.43a21.34,21.34,0,0,0,1.35-18.64A8.91,8.91,0,0,0,21.83,22.34Z"/><path class="c530ca49-2384-4a38-b3d2-f8b46946d139" d="M6,35.38a9.08,9.08,0,0,0-6,3.09V44H10l0.28-.68c1.23-3.08-.62-4.92-2.42-7.1A3.79,3.79,0,0,0,6,35.38Z"/><path class="a77ed8bb-dc61-4dbc-acd0-7ffda3b8f4c7" d="M49.53,17.23l4,10.17,0.38,1.48h0l0.46-1.48,3.75-10.17h1.21L54.61,30H53.26L48.19,17.23h1.34Z"/><path class="a77ed8bb-dc61-4dbc-acd0-7ffda3b8f4c7" d="M62.77,17.23V30H61.56V17.23h1.21Z"/><path class="a77ed8bb-dc61-4dbc-acd0-7ffda3b8f4c7" d="M65.64,28.43a7.29,7.29,0,0,0,2.85.71c1.24,0,3-.6,3-2.23S70,24.55,68.55,23.78s-2.95-1.48-2.95-3.51c0-1.41.77-3.18,4-3.18a8.66,8.66,0,0,1,2.78.46l-0.16,1.13a6.53,6.53,0,0,0-2.62-.55c-2.36,0-2.65,1.37-2.65,2.14,0,1.35,1.19,1.87,2.67,2.67,1.94,1.06,3.18,1.83,3.18,3.88,0,1.7-1.21,3.37-4.26,3.37a7.93,7.93,0,0,1-3-.57Z"/><path class="a77ed8bb-dc61-4dbc-acd0-7ffda3b8f4c7" d="M76.51,25.74a3.48,3.48,0,0,0,7,0V17.23h1.21v8.54c0,2.71-1.85,4.41-4.68,4.41s-4.68-1.7-4.68-4.41V17.23h1.21v8.51Z"/><path class="a77ed8bb-dc61-4dbc-acd0-7ffda3b8f4c7" d="M92.74,17.23L97.82,30h-1.3L95.12,26.5H88.79L87.38,30h-1.3l5.09-12.81h1.57Zm-0.81,1.19-0.42,1.21-2.32,5.84h5.52l-2.32-5.84L92,18.42h0Z"/><path class="a77ed8bb-dc61-4dbc-acd0-7ffda3b8f4c7" d="M101.13,17.23V29h5.23v1H99.93V17.23h1.21Z"/><path class="a77ed8bb-dc61-4dbc-acd0-7ffda3b8f4c7" d="M108,27.31a8.42,8.42,0,0,0,3.17.77c1.39,0,2-.82,2-1.54,0-1.34-1.41-1.7-2.58-2.29-1.92-1-3-1.76-3-3.57,0-1.28.69-3.6,4-3.6a10.88,10.88,0,0,1,3.66.55l-0.27,2a7.94,7.94,0,0,0-2.8-.62c-1.59,0-1.92.82-1.92,1.35,0,1,.9,1.48,1.7,1.83,2.14,0.92,3.88,1.65,3.88,4.21,0,2-1.57,3.73-4.88,3.73a9.37,9.37,0,0,1-3.33-.64Z"/><path class="a77ed8bb-dc61-4dbc-acd0-7ffda3b8f4c7" d="M117.11,17.23l2.76,8.32,0.57,2h0l0.55-2,2.8-8.32h2.6L122,30h-3.2l-4.46-12.81h2.78Z"/><path class="a77ed8bb-dc61-4dbc-acd0-7ffda3b8f4c7" d="M129.33,17.23l4.43,8.07L134.43,27h0.05l-0.05-2.27V17.23H137V30h-3.37l-4.46-8.38-0.64-1.43H128.5l0.05,2.27V30H126V17.23h3.37Z"/><path class="a77ed8bb-dc61-4dbc-acd0-7ffda3b8f4c7" d="M144.63,28.39a7.27,7.27,0,0,0,2.84.71c1.24,0,3-.6,3-2.23s-1.46-2.35-2.9-3.12-2.94-1.48-2.94-3.5c0-1.4.77-3.17,3.94-3.17a8.63,8.63,0,0,1,2.77.46l-0.16,1.13a6.51,6.51,0,0,0-2.61-.55c-2.35,0-2.64,1.37-2.64,2.13,0,1.35,1.19,1.86,2.66,2.66,1.93,1.06,3.17,1.82,3.17,3.87,0,1.7-1.2,3.36-4.25,3.36a7.91,7.91,0,0,1-3-.57Z"/><path class="a77ed8bb-dc61-4dbc-acd0-7ffda3b8f4c7" d="M160.66,17.23v1h-5v4.61h4.76v1h-4.76v5H161v1h-6.55V17.23h6.2Z"/><path class="a77ed8bb-dc61-4dbc-acd0-7ffda3b8f4c7" d="M167,17.23c3.28,0,3.9,2.06,3.9,3.43a3,3,0,0,1-2.75,3v0A1.8,1.8,0,0,1,169.56,25l2.21,5h-1.33l-2.1-4.72a1.68,1.68,0,0,0-1.79-1.17h-1.61V30h-1.2V17.23H167Zm-2.08,5.84h1.77a2.65,2.65,0,0,0,2.92-2.39,2.26,2.26,0,0,0-2.52-2.41h-2.17v4.8Z"/><path class="a77ed8bb-dc61-4dbc-acd0-7ffda3b8f4c7" d="M174.56,17.23l4,10.14,0.38,1.48h0l0.46-1.48,3.74-10.14h1.2L179.63,30h-1.35l-5.05-12.77h1.33Z"/><path class="a77ed8bb-dc61-4dbc-acd0-7ffda3b8f4c7" d="M192.76,17.23v1h-5v4.61h4.76v1h-4.76v5h5.34v1h-6.55V17.23h6.2Z"/><path class="a77ed8bb-dc61-4dbc-acd0-7ffda3b8f4c7" d="M199.13,17.23c3.28,0,3.9,2.06,3.9,3.43a3,3,0,0,1-2.75,3v0A1.8,1.8,0,0,1,201.66,25l2.21,5h-1.33l-2.1-4.72a1.68,1.68,0,0,0-1.79-1.17H197V30h-1.2V17.23h3.28ZM197,23.07h1.77a2.65,2.65,0,0,0,2.92-2.39,2.26,2.26,0,0,0-2.52-2.41H197v4.8Z"/></svg>